<?xml version="1.0" encoding="UTF-8"?>
<svg width="600" height="400" viewBox="0 0 600 400" xmlns="http://www.w3.org/2000/svg">
  <!-- Sfondo -->
  <rect width="600" height="400" fill="#f8f9fa" rx="8" ry="8"/>
  
  <!-- Titolo placeholder -->
  <text x="300" y="40" font-family="Montserrat, sans-serif" font-size="18" font-weight="bold" text-anchor="middle" fill="#0A2342">
    Diagramma di Complessità del Sistema Giuridico
  </text>
  
  <!-- Nodi principali -->
  <circle cx="300" cy="200" r="40" fill="#0A2342" opacity="0.8"/>
  <circle cx="180" cy="150" r="25" fill="#0077CC" opacity="0.7"/>
  <circle cx="420" cy="150" r="25" fill="#0077CC" opacity="0.7"/>
  <circle cx="150" cy="270" r="25" fill="#0077CC" opacity="0.7"/>
  <circle cx="450" cy="270" r="25" fill="#0077CC" opacity="0.7"/>
  
  <!-- Nodi secondari -->
  <circle cx="130" cy="100" r="15" fill="#4A90E2" opacity="0.6"/>
  <circle cx="230" cy="100" r="15" fill="#4A90E2" opacity="0.6"/>
  <circle cx="370" cy="100" r="15" fill="#4A90E2" opacity="0.6"/>
  <circle cx="470" cy="100" r="15" fill="#4A90E2" opacity="0.6"/>
  <circle cx="100" cy="200" r="15" fill="#4A90E2" opacity="0.6"/>
  <circle cx="500" cy="200" r="15" fill="#4A90E2" opacity="0.6"/>
  <circle cx="100" cy="320" r="15" fill="#4A90E2" opacity="0.6"/>
  <circle cx="200" cy="320" r="15" fill="#4A90E2" opacity="0.6"/>
  <circle cx="400" cy="320" r="15" fill="#4A90E2" opacity="0.6"/>
  <circle cx="500" cy="320" r="15" fill="#4A90E2" opacity="0.6"/>
  
  <!-- Connessioni tra i nodi -->
  <line x1="300" y1="200" x2="180" y2="150" stroke="#dee2e6" stroke-width="2"/>
  <line x1="300" y1="200" x2="420" y2="150" stroke="#dee2e6" stroke-width="2"/>
  <line x1="300" y1="200" x2="150" y2="270" stroke="#dee2e6" stroke-width="2"/>
  <line x1="300" y1="200" x2="450" y2="270" stroke="#dee2e6" stroke-width="2"/>
  
  <line x1="180" y1="150" x2="130" y2="100" stroke="#dee2e6" stroke-width="1"/>
  <line x1="180" y1="150" x2="230" y2="100" stroke="#dee2e6" stroke-width="1"/>
  <line x1="420" y1="150" x2="370" y2="100" stroke="#dee2e6" stroke-width="1"/>
  <line x1="420" y1="150" x2="470" y2="100" stroke="#dee2e6" stroke-width="1"/>
  <line x1="150" y1="270" x2="100" y2="200" stroke="#dee2e6" stroke-width="1"/>
  <line x1="450" y1="270" x2="500" y2="200" stroke="#dee2e6" stroke-width="1"/>
  <line x1="150" y1="270" x2="100" y2="320" stroke="#dee2e6" stroke-width="1"/>
  <line x1="150" y1="270" x2="200" y2="320" stroke="#dee2e6" stroke-width="1"/>
  <line x1="450" y1="270" x2="400" y2="320" stroke="#dee2e6" stroke-width="1"/>
  <line x1="450" y1="270" x2="500" y2="320" stroke="#dee2e6" stroke-width="1"/>
  
  <!-- Etichette nodi principali -->
  <text x="300" y="204" font-family="Montserrat, sans-serif" font-size="12" fill="white" text-anchor="middle">
    Sistema
  </text>
  <text x="180" y="154" font-family="Montserrat, sans-serif" font-size="10" fill="white" text-anchor="middle">
    Norme
  </text>
  <text x="420" y="154" font-family="Montserrat, sans-serif" font-size="10" fill="white" text-anchor="middle">
    Principi
  </text>
  <text x="150" y="274" font-family="Montserrat, sans-serif" font-size="10" fill="white" text-anchor="middle">
    Proc.
  </text>
  <text x="450" y="274" font-family="Montserrat, sans-serif" font-size="10" fill="white" text-anchor="middle">
    Giuris.
  </text>
  
  <!-- Nota -->
  <text x="300" y="380" font-family="Open Sans, sans-serif" font-size="12" fill="#495057" text-anchor="middle" font-style="italic">
    Placeholder per il diagramma di complessità del sistema giuridico
  </text>
</svg>