<?xml version="1.0" standalone="no"?>
<!DOCTYPE svg PUBLIC "-//W3C//DTD SVG 20010904//EN"
 "http://www.w3.org/TR/2001/REC-SVG-20010904/DTD/svg10.dtd">
<svg version="1.0" xmlns="http://www.w3.org/2000/svg"
 width="1024.000000pt" height="1024.000000pt" viewBox="0 0 1024.000000 1024.000000"
 preserveAspectRatio="xMidYMid meet">

<g transform="translate(0.000000,1024.000000) scale(0.100000,-0.100000)"
fill="#000000" stroke="none">
<path d="M4268 8137 c-53 -127 -160 -380 -236 -562 -77 -181 -228 -541 -337
-800 -108 -258 -235 -560 -282 -670 -47 -110 -87 -206 -90 -213 -4 -10 34 -12
183 -10 l189 3 62 150 62 150 557 0 557 0 188 -465 188 -465 188 -5 c103 -3
190 -4 192 -3 4 2 -209 512 -644 1538 -355 839 -607 1436 -641 1518 -15 37
-30 67 -33 67 -3 0 -50 -105 -103 -233z m511 -1594 l12 -23 -416 0 c-228 0
-415 3 -415 6 0 8 101 250 267 642 69 163 130 308 135 321 8 21 37 -41 207
-450 109 -261 203 -484 210 -496z"/>
<path d="M2239 8355 c-3 -3 0 -28 7 -55 10 -40 13 -666 13 -3197 l0 -3148
1048 0 1048 0 104 23 c185 42 306 94 456 196 230 157 406 404 481 674 33 121
49 301 35 415 -32 272 -138 478 -350 679 -106 101 -208 171 -342 236 l-96 46
79 90 c86 99 154 222 185 336 27 100 25 320 -5 424 -73 255 -264 459 -524 559
l-83 32 -848 3 -847 3 3 1312 c2 722 7 1326 11 1343 l8 31 -189 2 c-104 1
-191 0 -194 -4z m2072 -3077 c191 -94 303 -302 270 -500 -26 -157 -148 -327
-281 -391 -105 -50 -153 -57 -422 -57 l-248 0 0 370 0 370 -175 0 -175 0 0
-1275 0 -1275 175 0 175 0 0 730 -1 731 347 -1 c387 -1 435 -6 582 -66 280
-112 469 -325 518 -581 51 -266 -33 -545 -227 -757 -99 -109 -249 -202 -401
-248 -73 -22 -73 -22 -960 -26 l-888 -3 0 1511 0 1511 818 -3 818 -3 75 -37z"/>
<path d="M5700 8165 l0 -185 515 0 515 0 -3 -2987 c-2 -1644 -7 -3000 -11
-3016 l-8 -27 197 0 c182 0 196 1 191 18 -3 9 -10 37 -15 62 -7 30 -11 1042
-11 2998 l0 2952 513 0 c283 0 516 2 518 4 2 2 3 86 1 185 l-3 181 -1199 0
-1200 0 0 -185z"/>
<path d="M5697 7530 c11 -47 10 -5495 -1 -5542 l-8 -38 192 0 c178 0 191 1
186 18 -3 9 -10 37 -15 62 -13 56 -15 5428 -2 5462 4 13 11 34 14 48 l6 25
-190 0 -190 0 8 -35z"/>
</g>
</svg>
